M48
; DRILL file {KiCad (6.0.11)} date Wed 15 Feb 2023 06:23:18 PM PST
; FORMAT={-:-/ absolute / metric / decimal}
; #@! TF.CreationDate,2023-02-15T18:23:18-08:00
; #@! TF.GenerationSoftware,Kicad,Pcbnew,(6.0.11)
; #@! TF.FileFunction,Plated,1,4,PTH
FMAT,2
METRIC
; #@! TA.AperFunction,Plated,PTH,ViaDrill
T1C0.300
; #@! TA.AperFunction,Plated,PTH,ComponentDrill
T2C0.300
; #@! TA.AperFunction,Plated,PTH,ViaDrill
T3C0.350
; #@! TA.AperFunction,Plated,PTH,ComponentDrill
T4C2.200
%
G90
G05
T1
X100.9Y-76.345
X100.9Y-78.945
X100.9Y-98.745
X100.9Y-101.345
X100.9Y-121.045
X100.9Y-123.645
X102.0Y-121.045
X102.0Y-123.645
X102.017Y-98.745
X102.017Y-101.345
X102.025Y-76.345
X102.025Y-78.945
X103.1Y-121.045
X103.1Y-123.645
X103.133Y-98.745
X103.133Y-101.345
X103.15Y-76.345
X103.15Y-78.945
X104.2Y-121.045
X104.25Y-101.345
X104.275Y-76.345
X105.215Y-98.745
X105.215Y-101.345
X105.4Y-76.345
X105.4Y-78.945
X105.4Y-121.045
X105.4Y-123.645
X106.185Y-98.745
X106.185Y-101.345
X106.37Y-76.345
X106.37Y-78.945
X106.37Y-121.045
X106.37Y-123.645
X107.15Y-101.345
X107.22Y-76.345
X107.22Y-78.945
X107.22Y-121.045
X107.22Y-123.645
X108.115Y-98.745
X108.115Y-101.345
X108.97Y-74.995
X108.97Y-80.395
X108.97Y-119.645
X108.97Y-125.045
X109.085Y-98.745
X109.085Y-101.345
X111.57Y-74.995
X111.57Y-80.395
X111.57Y-119.645
X111.57Y-125.045
X111.8Y-103.345
X111.81Y-96.845
X112.852Y-96.845
X112.852Y-99.445
X112.858Y-100.745
X112.858Y-103.345
X113.895Y-96.845
X113.895Y-99.445
X113.916Y-100.745
X113.916Y-103.345
X114.17Y-74.995
X114.17Y-80.395
X114.17Y-119.645
X114.17Y-125.045
X114.937Y-96.845
X114.937Y-99.445
X114.973Y-100.745
X114.973Y-103.345
X115.979Y-96.845
X115.979Y-99.445
X115.99Y-76.345
X115.99Y-78.945
X115.99Y-121.045
X115.99Y-123.645
X116.031Y-100.745
X116.031Y-103.345
X116.5Y-86.045
X116.5Y-129.295
X116.82Y-76.345
X116.82Y-78.945
X116.82Y-121.045
X116.82Y-123.645
X117.022Y-96.845
X117.022Y-99.445
X117.089Y-100.745
X117.089Y-103.345
X117.1Y-86.895
X117.4Y-130.045
X117.78Y-76.345
X117.78Y-78.945
X117.78Y-121.045
X117.78Y-123.645
X118.064Y-96.845
X118.064Y-99.445
X118.147Y-100.745
X118.147Y-103.345
X118.5Y-78.945
X119.106Y-96.845
X119.106Y-99.445
X119.205Y-100.745
X119.205Y-103.345
X119.277Y-78.945
X119.277Y-123.645
X120.148Y-96.845
X120.148Y-99.445
X120.263Y-100.745
X120.263Y-103.345
X120.35Y-78.945
X121.191Y-96.845
X121.191Y-99.445
X121.25Y-78.945
X121.32Y-100.745
X121.32Y-103.345
X122.233Y-96.845
X122.233Y-99.445
X122.322Y-78.945
X122.322Y-123.645
X122.378Y-100.745
X122.378Y-103.345
X123.275Y-96.845
X123.275Y-99.445
X123.436Y-100.745
X123.436Y-103.345
X123.9Y-78.945
X123.9Y-123.645
X124.1Y-70.845
X124.318Y-96.845
X124.318Y-99.445
X124.494Y-100.745
X124.494Y-103.345
X124.92Y-76.345
X124.92Y-78.945
X124.92Y-121.045
X125.36Y-96.845
X125.36Y-99.445
X125.552Y-100.745
X125.552Y-103.345
X125.85Y-78.945
X126.0Y-121.045
X126.1Y-123.645
X126.3Y-115.145
X126.402Y-96.845
X126.402Y-99.445
X126.55Y-76.295
X126.61Y-100.745
X126.61Y-103.345
X126.8Y-78.895
X127.0Y-121.045
X127.0Y-123.995
X127.25Y-75.845
X127.445Y-96.845
X127.445Y-99.445
X127.667Y-100.745
X127.667Y-103.345
X127.7Y-78.545
X127.7Y-124.645
X127.85Y-75.195
X128.35Y-121.445
X128.487Y-96.845
X128.487Y-99.445
X128.55Y-74.745
X128.55Y-77.895
X128.725Y-100.745
X128.725Y-103.345
X128.95Y-125.495
X129.15Y-122.095
X129.3Y-77.095
X129.4Y-74.345
X129.529Y-96.845
X129.529Y-99.445
X129.75Y-122.745
X129.783Y-100.745
X129.85Y-103.345
X129.85Y-125.895
X130.572Y-99.445
X130.6Y-96.795
X130.85Y-103.745
X130.95Y-100.845
X131.4Y-96.345
X131.45Y-104.645
X131.55Y-99.245
X131.7Y-91.205
X131.7Y-92.333
X131.7Y-93.461
X131.7Y-94.589
X131.7Y-95.495
X131.7Y-105.545
X131.7Y-106.49
X131.7Y-107.717
X131.7Y-108.945
X132.05Y-101.245
X132.45Y-98.845
X133.0Y-101.945
X133.2Y-98.245
X133.75Y-97.445
X133.75Y-102.845
X134.15Y-96.595
X134.15Y-103.995
X134.3Y-91.205
X134.3Y-92.333
X134.3Y-93.461
X134.3Y-94.589
X134.3Y-95.717
X134.3Y-105.262
X134.3Y-106.49
X134.3Y-107.717
X134.3Y-108.945
X135.869Y-121.645
X136.16Y-75.745
X136.16Y-78.345
X136.98Y-121.645
X136.98Y-124.245
X137.3Y-75.745
X138.019Y-121.645
X138.7Y-103.845
X138.8Y-75.745
X139.043Y-98.896
X139.619Y-121.745
X139.935Y-75.745
X139.935Y-78.345
X140.256Y-95.884
X140.8Y-121.745
X140.8Y-124.345
X140.905Y-75.745
X140.905Y-78.345
X141.77Y-121.745
X141.77Y-124.345
X141.84Y-75.745
X141.84Y-78.345
X142.705Y-121.745
X142.705Y-124.345
X142.8Y-75.745
X142.8Y-78.345
X142.95Y-104.045
X143.665Y-121.745
X143.665Y-124.345
X144.15Y-96.845
X144.2Y-100.045
X144.735Y-75.745
X144.735Y-78.345
X145.4Y-95.445
X145.4Y-103.245
X145.6Y-121.745
X145.6Y-124.345
X145.705Y-75.745
X145.705Y-78.345
X146.475Y-105.245
X146.57Y-121.745
X146.57Y-124.345
X146.64Y-75.745
X146.64Y-78.345
X147.2Y-100.045
X147.45Y-109.151
X147.505Y-121.745
X147.505Y-124.345
X147.6Y-75.745
X147.6Y-78.345
X148.1Y-108.545
X148.465Y-121.745
X148.465Y-124.345
X148.7Y-92.645
X149.049Y-103.645
X149.444Y-95.796
X149.535Y-75.745
X149.535Y-78.345
X149.7Y-96.945
X150.15Y-100.095
X150.4Y-121.745
X150.4Y-124.345
X150.505Y-75.745
X150.505Y-78.345
X151.37Y-121.745
X151.37Y-124.345
X151.44Y-75.745
X151.44Y-78.345
X152.3Y-78.345
X152.305Y-121.745
X152.305Y-124.345
X152.4Y-75.745
X152.55Y-99.445
X153.15Y-78.645
X153.2Y-100.145
X153.2Y-124.345
X153.225Y-105.245
X153.25Y-121.745
X153.4Y-75.845
X153.6Y-93.795
X153.9Y-79.295
X154.25Y-76.495
X154.35Y-124.845
X154.5Y-80.095
X154.7Y-107.845
X155.15Y-80.695
X155.2Y-124.845
X155.436Y-103.281
X155.627Y-98.895
X155.9Y-107.545
X155.95Y-80.745
X156.1Y-124.845
X156.7Y-102.945
X156.8Y-80.745
X157.05Y-124.845
X157.6Y-80.745
X158.247Y-93.588
X158.25Y-125.245
X158.45Y-80.745
X158.921Y-103.847
X158.95Y-105.495
X159.0Y-104.645
X159.308Y-80.73
X159.393Y-108.138
X159.4Y-125.245
X159.5Y-101.545
X159.5Y-102.795
X160.1Y-105.395
X160.54Y-80.73
X160.672Y-122.645
X160.672Y-125.245
X160.95Y-101.545
X160.95Y-102.795
X161.25Y-109.045
X161.55Y-125.245
X161.787Y-78.13
X161.787Y-80.73
X161.9Y-97.072
X162.041Y-109.352
X162.2Y-121.595
X162.3Y-72.145
X162.45Y-124.945
X162.6Y-80.595
X162.95Y-124.245
X163.25Y-80.195
X163.5Y-105.645
X163.5Y-106.995
X163.6Y-72.345
X163.9Y-118.845
X164.035Y-115.531
X164.149Y-73.02
X164.3Y-114.645
X164.4Y-105.645
X164.71Y-72.336
X165.0Y-114.045
X165.3Y-91.569
X165.3Y-96.845
X165.35Y-96.045
X165.373Y-94.937
X165.4Y-73.345
X165.55Y-119.945
X165.55Y-121.445
X165.65Y-70.395
X165.7Y-113.145
X165.95Y-95.495
X166.2Y-97.195
X166.3Y-100.57
X166.35Y-98.745
X166.45Y-107.995
X166.451Y-106.042
X166.6Y-108.995
X166.65Y-70.395
X166.95Y-101.045
X167.081Y-98.357
X167.15Y-94.545
X167.25Y-119.945
X167.25Y-121.445
X167.3Y-74.695
X167.3Y-76.295
X167.65Y-70.395
X167.65Y-125.995
X167.7Y-101.37
X167.776Y-106.003
X168.15Y-93.845
X168.65Y-70.395
X169.0Y-74.695
X169.0Y-76.295
X169.1Y-118.745
X169.3Y-127.645
X169.5Y-96.795
X169.5Y-104.195
X169.65Y-70.395
X170.4Y-83.345
X170.45Y-92.495
X170.6Y-81.445
X170.65Y-70.395
X170.71Y-120.645
X170.71Y-123.245
X170.85Y-99.045
X170.85Y-100.395
X170.9Y-96.845
X170.951Y-104.12
X171.05Y-91.045
X171.5Y-75.445
X171.55Y-94.03
X171.6Y-85.195
X172.15Y-103.663
X172.179Y-78.724
X172.2Y-99.045
X172.2Y-100.395
X172.208Y-84.584
X172.3Y-105.545
X172.377Y-123.245
X172.749Y-94.345
X172.8Y-85.745
X173.35Y-97.095
X173.35Y-99.045
X173.35Y-100.395
X173.621Y-78.724
X174.4Y-97.095
X174.45Y-99.045
X174.45Y-100.395
X175.778Y-123.622
X176.473Y-98.294
X176.484Y-102.754
X176.986Y-96.519
X177.01Y-123.622
X177.147Y-102.301
X177.2Y-78.945
X177.25Y-97.345
X177.8Y-95.045
X177.905Y-101.496
X178.01Y-121.017
X178.01Y-123.617
X178.418Y-103.342
X178.7Y-78.945
X178.97Y-121.017
X178.97Y-123.617
X179.7Y-76.345
X179.7Y-78.945
X180.159Y-121.017
X180.35Y-126.945
X180.66Y-76.345
X180.66Y-78.945
X180.9Y-125.795
X181.43Y-121.02
X181.43Y-123.62
X181.5Y-124.545
X181.7Y-76.345
X181.85Y-81.645
X181.85Y-82.695
X181.9Y-80.645
X182.653Y-121.02
X182.653Y-123.62
X182.825Y-76.345
X182.825Y-78.945
X183.877Y-121.02
X183.877Y-123.62
X183.95Y-76.345
X183.95Y-78.945
X185.075Y-76.345
X185.075Y-78.945
X185.1Y-121.02
X185.1Y-123.62
T2
X119.3Y-73.272
X119.3Y-73.972
X119.3Y-74.672
X119.3Y-75.373
X119.3Y-76.072
X119.3Y-117.972
X119.3Y-118.672
X119.3Y-119.372
X119.3Y-120.072
X119.3Y-120.772
X120.043Y-73.27
X120.043Y-73.97
X120.043Y-74.67
X120.043Y-75.37
X120.043Y-76.07
X120.043Y-117.97
X120.043Y-118.67
X120.043Y-119.37
X120.043Y-120.07
X120.043Y-120.77
X120.8Y-73.272
X120.8Y-73.972
X120.8Y-74.672
X120.8Y-75.373
X120.8Y-76.072
X120.8Y-76.873
X120.8Y-77.632
X120.8Y-117.972
X120.8Y-118.672
X120.8Y-119.372
X120.8Y-120.072
X120.8Y-120.772
X120.8Y-121.572
X120.8Y-122.332
X121.55Y-73.272
X121.55Y-73.972
X121.55Y-74.672
X121.55Y-75.373
X121.55Y-76.072
X121.55Y-117.972
X121.55Y-118.672
X121.55Y-119.372
X121.55Y-120.072
X121.55Y-120.772
X122.3Y-73.272
X122.3Y-73.972
X122.3Y-74.672
X122.3Y-75.373
X122.3Y-76.072
X122.3Y-117.972
X122.3Y-118.672
X122.3Y-119.372
X122.3Y-120.072
X122.3Y-120.772
X154.8Y-119.145
X154.8Y-119.845
X154.8Y-120.545
X154.8Y-121.245
X154.8Y-121.945
X155.543Y-119.142
X155.543Y-119.842
X155.543Y-120.542
X155.543Y-121.242
X155.543Y-121.942
X155.9Y-74.672
X155.9Y-75.373
X155.9Y-76.072
X155.9Y-76.772
X155.9Y-77.472
X156.3Y-119.145
X156.3Y-119.845
X156.3Y-120.545
X156.3Y-121.245
X156.3Y-121.945
X156.3Y-122.745
X156.3Y-123.505
X156.643Y-74.67
X156.643Y-75.37
X156.643Y-76.07
X156.643Y-76.77
X156.643Y-77.47
X157.05Y-119.145
X157.05Y-119.845
X157.05Y-120.545
X157.05Y-121.245
X157.05Y-121.945
X157.4Y-74.672
X157.4Y-75.373
X157.4Y-76.072
X157.4Y-76.772
X157.4Y-77.472
X157.4Y-78.272
X157.4Y-79.032
X157.8Y-119.145
X157.8Y-119.845
X157.8Y-120.545
X157.8Y-121.245
X157.8Y-121.945
X158.15Y-74.672
X158.15Y-75.373
X158.15Y-76.072
X158.15Y-76.772
X158.15Y-77.472
X158.9Y-74.672
X158.9Y-75.373
X158.9Y-76.072
X158.9Y-76.772
X158.9Y-77.472
X172.45Y-117.645
X172.45Y-118.345
X172.45Y-119.045
X172.45Y-119.745
X172.45Y-120.445
X173.193Y-117.642
X173.193Y-118.342
X173.193Y-119.042
X173.193Y-119.742
X173.193Y-120.442
X173.8Y-72.895
X173.8Y-73.595
X173.8Y-74.295
X173.8Y-74.995
X173.8Y-75.695
X173.95Y-117.645
X173.95Y-118.345
X173.95Y-119.045
X173.95Y-119.745
X173.95Y-120.445
X173.95Y-121.245
X173.95Y-122.005
X174.543Y-72.892
X174.543Y-73.592
X174.543Y-74.292
X174.543Y-74.992
X174.543Y-75.692
X174.7Y-117.645
X174.7Y-118.345
X174.7Y-119.045
X174.7Y-119.745
X174.7Y-120.445
X175.3Y-72.895
X175.3Y-73.595
X175.3Y-74.295
X175.3Y-74.995
X175.3Y-75.695
X175.3Y-76.495
X175.3Y-77.255
X175.45Y-117.645
X175.45Y-118.345
X175.45Y-119.045
X175.45Y-119.745
X175.45Y-120.445
X176.05Y-72.895
X176.05Y-73.595
X176.05Y-74.295
X176.05Y-74.995
X176.05Y-75.695
X176.8Y-72.895
X176.8Y-73.595
X176.8Y-74.295
X176.8Y-74.995
X176.8Y-75.695
T3
X101.0Y-71.045
X101.0Y-73.045
X101.0Y-83.045
X101.0Y-85.045
X101.0Y-87.045
X101.0Y-89.045
X101.0Y-91.045
X101.0Y-93.045
X101.0Y-95.045
X101.0Y-105.045
X101.0Y-107.045
X101.0Y-109.045
X101.0Y-111.045
X101.0Y-113.045
X101.0Y-115.045
X101.0Y-117.045
X101.0Y-127.045
X101.0Y-129.045
X103.0Y-71.045
X103.0Y-73.045
X103.0Y-83.045
X103.0Y-85.045
X103.0Y-87.045
X103.0Y-89.045
X103.0Y-91.045
X103.0Y-93.045
X103.0Y-95.045
X103.0Y-105.045
X103.0Y-107.045
X103.0Y-109.045
X103.0Y-111.045
X103.0Y-113.045
X103.0Y-115.045
X103.0Y-117.045
X103.0Y-127.045
X103.0Y-129.045
X105.0Y-67.045
X105.0Y-69.045
X105.0Y-71.045
X105.0Y-73.045
X105.0Y-75.045
X105.0Y-87.045
X105.0Y-89.045
X105.0Y-91.045
X105.0Y-93.045
X105.0Y-95.045
X105.0Y-97.045
X105.0Y-103.045
X105.0Y-105.045
X105.0Y-107.045
X105.0Y-109.045
X105.0Y-111.045
X105.0Y-113.045
X105.0Y-115.045
X105.0Y-117.045
X105.0Y-119.045
X105.0Y-133.045
X107.0Y-67.045
X107.0Y-69.045
X107.0Y-71.045
X107.0Y-73.045
X107.0Y-75.045
X107.0Y-85.045
X107.0Y-87.045
X107.0Y-89.045
X107.0Y-91.045
X107.0Y-93.045
X107.0Y-95.045
X107.0Y-97.045
X107.0Y-103.045
X107.0Y-105.045
X107.0Y-107.045
X107.0Y-109.045
X107.0Y-111.045
X107.0Y-113.045
X107.0Y-115.045
X107.0Y-117.045
X107.0Y-119.045
X107.0Y-125.045
X107.0Y-129.045
X107.0Y-131.045
X107.0Y-133.045
X109.0Y-67.045
X109.0Y-69.045
X109.0Y-71.045
X109.0Y-73.045
X109.0Y-89.045
X109.0Y-91.045
X109.0Y-93.045
X109.0Y-95.045
X109.0Y-97.045
X109.0Y-105.045
X109.0Y-107.045
X109.0Y-109.045
X109.0Y-111.045
X109.0Y-113.045
X109.0Y-115.045
X109.0Y-117.045
X109.0Y-133.045
X111.0Y-67.045
X111.0Y-69.045
X111.0Y-71.045
X111.0Y-73.045
X111.0Y-89.045
X111.0Y-91.045
X111.0Y-93.045
X111.0Y-95.045
X111.0Y-105.045
X111.0Y-107.045
X111.0Y-109.045
X111.0Y-111.045
X111.0Y-113.045
X111.0Y-115.045
X111.0Y-117.045
X111.0Y-133.045
X113.0Y-67.045
X113.0Y-69.045
X113.0Y-71.045
X113.0Y-73.045
X113.0Y-83.045
X113.0Y-85.045
X113.0Y-89.045
X113.0Y-91.045
X113.0Y-93.045
X113.0Y-95.045
X113.0Y-105.045
X113.0Y-107.045
X113.0Y-109.045
X113.0Y-111.045
X113.0Y-113.045
X113.0Y-115.045
X113.0Y-117.045
X113.0Y-127.045
X113.0Y-129.045
X113.0Y-133.045
X115.0Y-67.045
X115.0Y-69.045
X115.0Y-71.045
X115.0Y-73.045
X115.0Y-89.045
X115.0Y-91.045
X115.0Y-93.045
X115.0Y-95.045
X115.0Y-105.045
X115.0Y-107.045
X115.0Y-109.045
X115.0Y-111.045
X115.0Y-113.045
X115.0Y-115.045
X115.0Y-117.045
X115.0Y-133.045
X117.0Y-67.045
X117.0Y-69.045
X117.0Y-71.045
X117.0Y-73.045
X117.0Y-75.045
X117.0Y-81.045
X117.0Y-83.045
X117.0Y-89.045
X117.0Y-91.045
X117.0Y-93.045
X117.0Y-95.045
X117.0Y-105.045
X117.0Y-107.045
X117.0Y-109.045
X117.0Y-111.045
X117.0Y-113.045
X117.0Y-115.045
X117.0Y-117.045
X117.0Y-119.045
X117.0Y-125.045
X117.0Y-127.045
X117.0Y-133.045
X119.0Y-67.045
X119.0Y-69.045
X119.0Y-71.045
X119.0Y-81.045
X119.0Y-83.045
X119.0Y-85.045
X119.0Y-89.045
X119.0Y-91.045
X119.0Y-93.045
X119.0Y-95.045
X119.0Y-105.045
X119.0Y-107.045
X119.0Y-109.045
X119.0Y-111.045
X119.0Y-113.045
X119.0Y-115.045
X119.0Y-125.045
X119.0Y-131.045
X119.0Y-133.045
X121.0Y-67.045
X121.0Y-69.045
X121.0Y-71.045
X121.0Y-81.045
X121.0Y-83.045
X121.0Y-85.045
X121.0Y-89.045
X121.0Y-91.045
X121.0Y-93.045
X121.0Y-95.045
X121.0Y-105.045
X121.0Y-107.045
X121.0Y-109.045
X121.0Y-111.045
X121.0Y-113.045
X121.0Y-115.045
X121.0Y-131.045
X121.0Y-133.045
X123.0Y-67.045
X123.0Y-69.045
X123.0Y-81.045
X123.0Y-83.045
X123.0Y-85.045
X123.0Y-89.045
X123.0Y-91.045
X123.0Y-93.045
X123.0Y-95.045
X123.0Y-105.045
X123.0Y-107.045
X123.0Y-109.045
X123.0Y-111.045
X123.0Y-113.045
X123.0Y-129.045
X123.0Y-131.045
X123.0Y-133.045
X125.0Y-67.045
X125.0Y-69.045
X125.0Y-81.045
X125.0Y-83.045
X125.0Y-85.045
X125.0Y-89.045
X125.0Y-91.045
X125.0Y-93.045
X125.0Y-95.045
X125.0Y-105.045
X125.0Y-107.045
X125.0Y-109.045
X125.0Y-111.045
X125.0Y-113.045
X125.0Y-127.045
X125.0Y-129.045
X125.0Y-131.045
X125.0Y-133.045
X127.0Y-67.045
X127.0Y-69.045
X127.0Y-71.045
X127.0Y-81.045
X127.0Y-83.045
X127.0Y-85.045
X127.0Y-89.045
X127.0Y-91.045
X127.0Y-93.045
X127.0Y-95.045
X127.0Y-105.045
X127.0Y-107.045
X127.0Y-109.045
X127.0Y-111.045
X127.0Y-113.045
X127.0Y-117.045
X127.0Y-119.045
X127.0Y-127.045
X127.0Y-129.045
X127.0Y-131.045
X127.0Y-133.045
X129.0Y-67.045
X129.0Y-69.045
X129.0Y-71.045
X129.0Y-79.045
X129.0Y-81.045
X129.0Y-83.045
X129.0Y-85.045
X129.0Y-89.045
X129.0Y-91.045
X129.0Y-93.045
X129.0Y-95.045
X129.0Y-105.045
X129.0Y-107.045
X129.0Y-109.045
X129.0Y-111.045
X129.0Y-113.045
X129.0Y-117.045
X129.0Y-127.045
X129.0Y-129.045
X129.0Y-131.045
X129.0Y-133.045
X131.0Y-67.045
X131.0Y-69.045
X131.0Y-71.045
X131.0Y-89.045
X131.0Y-111.045
X131.0Y-127.045
X131.0Y-129.045
X131.0Y-131.045
X131.0Y-133.045
X133.0Y-67.045
X133.0Y-69.045
X133.0Y-71.045
X133.0Y-127.045
X133.0Y-129.045
X133.0Y-131.045
X133.0Y-133.045
X135.0Y-67.045
X135.0Y-69.045
X135.0Y-71.045
X135.0Y-81.045
X135.0Y-89.045
X135.0Y-99.045
X135.0Y-101.045
X135.0Y-111.045
X135.0Y-127.045
X135.0Y-129.045
X135.0Y-131.045
X135.0Y-133.045
X137.0Y-67.045
X137.0Y-69.045
X137.0Y-71.045
X137.0Y-81.045
X137.0Y-83.045
X137.0Y-85.045
X137.0Y-91.045
X137.0Y-93.045
X137.0Y-95.045
X137.0Y-97.045
X137.0Y-99.045
X137.0Y-101.045
X137.0Y-103.045
X137.0Y-105.045
X137.0Y-107.045
X137.0Y-109.045
X137.0Y-119.045
X137.0Y-127.045
X137.0Y-129.045
X137.0Y-131.045
X137.0Y-133.045
X139.0Y-67.045
X139.0Y-69.045
X139.0Y-71.045
X139.0Y-81.045
X139.0Y-83.045
X139.0Y-85.045
X139.0Y-117.045
X139.0Y-119.045
X139.0Y-127.045
X139.0Y-129.045
X139.0Y-131.045
X139.0Y-133.045
X141.0Y-67.045
X141.0Y-69.045
X141.0Y-71.045
X141.0Y-81.045
X141.0Y-83.045
X141.0Y-85.045
X141.0Y-87.045
X141.0Y-107.045
X141.0Y-115.045
X141.0Y-117.045
X141.0Y-119.045
X141.0Y-127.045
X141.0Y-129.045
X141.0Y-131.045
X141.0Y-133.045
X143.0Y-67.045
X143.0Y-69.045
X143.0Y-71.045
X143.0Y-81.045
X143.0Y-87.045
X143.0Y-89.045
X143.0Y-91.045
X143.0Y-93.045
X143.0Y-119.045
X143.0Y-127.045
X143.0Y-129.045
X143.0Y-131.045
X143.0Y-133.045
X145.0Y-67.045
X145.0Y-69.045
X145.0Y-71.045
X145.0Y-81.045
X145.0Y-87.045
X145.0Y-89.045
X145.0Y-91.045
X145.0Y-93.045
X145.0Y-111.045
X145.0Y-119.045
X145.0Y-127.045
X145.0Y-129.045
X145.0Y-131.045
X145.0Y-133.045
X147.0Y-67.045
X147.0Y-69.045
X147.0Y-71.045
X147.0Y-81.045
X147.0Y-83.045
X147.0Y-85.045
X147.0Y-87.045
X147.0Y-89.045
X147.0Y-91.045
X147.0Y-111.045
X147.0Y-113.045
X147.0Y-115.045
X147.0Y-117.045
X147.0Y-119.045
X147.0Y-127.045
X147.0Y-129.045
X147.0Y-131.045
X147.0Y-133.045
X149.0Y-67.045
X149.0Y-69.045
X149.0Y-71.045
X149.0Y-81.045
X149.0Y-83.045
X149.0Y-85.045
X149.0Y-87.045
X149.0Y-89.045
X149.0Y-91.045
X149.0Y-111.045
X149.0Y-113.045
X149.0Y-115.045
X149.0Y-117.045
X149.0Y-119.045
X149.0Y-127.045
X149.0Y-129.045
X149.0Y-131.045
X149.0Y-133.045
X151.0Y-67.045
X151.0Y-69.045
X151.0Y-71.045
X151.0Y-81.045
X151.0Y-83.045
X151.0Y-85.045
X151.0Y-87.045
X151.0Y-89.045
X151.0Y-91.045
X151.0Y-111.045
X151.0Y-113.045
X151.0Y-115.045
X151.0Y-117.045
X151.0Y-119.045
X151.0Y-127.045
X151.0Y-129.045
X151.0Y-131.045
X151.0Y-133.045
X153.0Y-67.045
X153.0Y-69.045
X153.0Y-71.045
X153.0Y-81.045
X153.0Y-83.045
X153.0Y-85.045
X153.0Y-87.045
X153.0Y-89.045
X153.0Y-91.045
X153.0Y-111.045
X153.0Y-113.045
X153.0Y-115.045
X153.0Y-117.045
X153.0Y-119.045
X153.0Y-127.045
X153.0Y-129.045
X153.0Y-131.045
X153.0Y-133.045
X155.0Y-67.045
X155.0Y-69.045
X155.0Y-71.045
X155.0Y-83.045
X155.0Y-85.045
X155.0Y-87.045
X155.0Y-89.045
X155.0Y-91.045
X155.0Y-111.045
X155.0Y-113.045
X155.0Y-115.045
X155.0Y-117.045
X155.0Y-127.045
X155.0Y-129.045
X155.0Y-131.045
X155.0Y-133.045
X157.0Y-67.045
X157.0Y-69.045
X157.0Y-71.045
X157.0Y-83.045
X157.0Y-85.045
X157.0Y-87.045
X157.0Y-89.045
X157.0Y-91.045
X157.0Y-111.045
X157.0Y-113.045
X157.0Y-115.045
X157.0Y-117.045
X157.0Y-127.045
X157.0Y-129.045
X157.0Y-131.045
X157.0Y-133.045
X159.0Y-67.045
X159.0Y-69.045
X159.0Y-71.045
X159.0Y-83.045
X159.0Y-85.045
X159.0Y-87.045
X159.0Y-89.045
X159.0Y-111.045
X159.0Y-113.045
X159.0Y-115.045
X159.0Y-117.045
X159.0Y-127.045
X159.0Y-129.045
X159.0Y-131.045
X159.0Y-133.045
X161.0Y-67.045
X161.0Y-69.045
X161.0Y-71.045
X161.0Y-83.045
X161.0Y-85.045
X161.0Y-87.045
X161.0Y-89.045
X161.0Y-111.045
X161.0Y-113.045
X161.0Y-115.045
X161.0Y-127.045
X161.0Y-129.045
X161.0Y-131.045
X161.0Y-133.045
X163.0Y-67.045
X163.0Y-69.045
X163.0Y-83.045
X163.0Y-85.045
X163.0Y-87.045
X163.0Y-89.045
X163.0Y-127.045
X163.0Y-129.045
X163.0Y-131.045
X163.0Y-133.045
X165.0Y-67.045
X165.0Y-83.045
X165.0Y-85.045
X165.0Y-87.045
X165.0Y-89.045
X165.0Y-127.045
X165.0Y-129.045
X165.0Y-131.045
X165.0Y-133.045
X167.0Y-67.045
X167.0Y-85.045
X167.0Y-87.045
X167.0Y-89.045
X167.0Y-111.045
X167.0Y-127.045
X167.0Y-129.045
X167.0Y-131.045
X167.0Y-133.045
X169.0Y-67.045
X169.0Y-87.045
X169.0Y-129.045
X169.0Y-131.045
X169.0Y-133.045
X171.0Y-67.045
X171.0Y-115.045
X171.0Y-117.045
X171.0Y-119.045
X171.0Y-129.045
X171.0Y-131.045
X171.0Y-133.045
X173.0Y-67.045
X173.0Y-111.045
X173.0Y-115.045
X173.0Y-129.045
X173.0Y-131.045
X173.0Y-133.045
X175.0Y-67.045
X175.0Y-71.045
X175.0Y-79.045
X175.0Y-85.045
X175.0Y-87.045
X175.0Y-89.045
X175.0Y-111.045
X175.0Y-129.045
X175.0Y-131.045
X175.0Y-133.045
X177.0Y-67.045
X177.0Y-71.045
X177.0Y-85.045
X177.0Y-87.045
X177.0Y-89.045
X177.0Y-111.045
X177.0Y-113.045
X177.0Y-129.045
X177.0Y-131.045
X177.0Y-133.045
X178.7Y-108.245
X179.0Y-67.045
X179.0Y-85.045
X179.0Y-87.045
X179.0Y-89.045
X179.0Y-91.045
X179.0Y-111.045
X179.0Y-113.045
X179.0Y-115.045
X179.0Y-131.045
X179.0Y-133.045
X181.0Y-67.045
X181.0Y-69.045
X181.0Y-71.045
X181.0Y-85.045
X181.0Y-87.045
X181.0Y-89.045
X181.0Y-91.045
X181.0Y-105.045
X181.0Y-107.045
X181.0Y-109.045
X181.0Y-111.045
X181.0Y-113.045
X181.0Y-115.045
X181.0Y-117.045
X181.0Y-119.045
X181.0Y-129.045
X181.0Y-131.045
X181.0Y-133.045
X183.0Y-71.045
X183.0Y-73.045
X183.0Y-83.045
X183.0Y-85.045
X183.0Y-87.045
X183.0Y-89.045
X183.0Y-95.045
X183.0Y-97.045
X183.0Y-99.045
X183.0Y-109.045
X183.0Y-111.045
X183.0Y-113.045
X183.0Y-115.045
X183.0Y-117.045
X183.0Y-127.045
X183.0Y-129.045
X185.0Y-71.045
X185.0Y-73.045
X185.0Y-83.045
X185.0Y-85.045
X185.0Y-87.045
X185.0Y-89.045
X185.0Y-95.045
X185.0Y-97.045
X185.0Y-99.045
X185.0Y-105.045
X185.0Y-107.045
X185.0Y-109.045
X185.0Y-111.045
X185.0Y-113.045
X185.0Y-115.045
X185.0Y-117.045
X185.0Y-127.045
X185.0Y-129.045
T4
X101.0Y-67.045
X101.0Y-133.045
X144.0Y-84.045
X144.0Y-114.545
X185.0Y-67.045
X185.0Y-133.045
T0
M30
